<?xml version="1.0" encoding="UTF-8" standalone="no"?>
<svg
   width="16"
   height="16"
   version="1.1"
   id="svg1"
   xml:space="preserve"
   xmlns="http://www.w3.org/2000/svg"
   xmlns:svg="http://www.w3.org/2000/svg"><defs
     id="defs1" /><path
     fill="#8eef97"
     d="M 3,1 C 1.8954305,1 1,1.8954305 1,3 H 3 Z M 5,1 V 3 H 7 V 1 Z m 4,0 v 2 h 2 V 1 Z m 4,0 v 2 h 2 C 15,1.8954305 14.104569,1 13,1 Z M 1,5 V 7 H 3 V 5 Z m 0,4 v 2 H 3 V 9 Z m 0,4 c 0,1.104569 0.8954305,2 2,2 v -2 z"
     id="path1"
     style="fill:#fc7d7d;fill-opacity:1" /><path
     fill="#8da5f3"
     d="M 7.9314923,5.1040892 A 2.8274031,2.8274031 0 0 0 5.1040892,7.9314923 V 12.172597 A 2.8274031,2.8274031 0 0 0 7.9314923,15 H 12.172597 A 2.8274031,2.8274031 0 0 0 15,12.172597 V 7.9314923 A 2.8274031,2.8274031 0 0 0 12.172597,5.1040892 Z M 6.5177908,9.3451938 a 0.70685077,0.70685077 0 0 1 1.4137015,0 v 1.4137012 a 0.70685077,0.70685077 0 0 1 -1.4137015,0 z m 7.0685072,1.4137012 a 0.70685077,0.70685077 0 0 1 -1.413701,0 V 9.3451938 a 0.70685077,0.70685077 0 0 1 1.413701,0 z m -1.535279,2.705825 a 2.8274031,2.8274031 0 0 1 -3.9979484,0 0.70685077,0.70685077 0 0 1 0.999487,-0.999487 1.4137015,1.4137015 0 0 0 1.9989744,0 0.70685077,0.70685077 0 0 1 0.999487,0.999487 z"
     id="path1-8"
     style="display:inline;fill:#fc7d7d;fill-opacity:1;stroke-width:0.706851" /><path
     fill="#fc7f7f"
     d="M 5,1 A 4,4 0 0 0 1,5 v 6 a 4,4 0 0 0 4,4 h 6 a 4,4 0 0 0 4,-4 V 5 A 4,4 0 0 0 11,1 Z M 3,7 A 1,1 0 0 1 5,7 V 9 A 1,1 0 0 1 3,9 Z M 13,9 A 1,1 0 0 1 11,9 V 7 a 1,1 0 0 1 2,0 z m -2.172,3.828 a 4,4 0 0 1 -5.656,0 1,1 0 0 1 1.414,-1.414 2,2 0 0 0 2.828,0 1,1 0 0 1 1.414,1.414 z"
     id="path1-5"
     style="display:none" /></svg>
